<?xml version="1.0" standalone="no"?>
<!DOCTYPE svg PUBLIC "-//W3C//DTD SVG 20010904//EN"
 "http://www.w3.org/TR/2001/REC-SVG-20010904/DTD/svg10.dtd">
<svg version="1.0" xmlns="http://www.w3.org/2000/svg"
 width="200.000000pt" height="200.000000pt" viewBox="0 0 200.000000 200.000000"
 preserveAspectRatio="xMidYMid meet">
<metadata>
Created by potrace 1.14, written by Peter Selinger 2001-2017
</metadata>
<g transform="translate(0.000000,200.000000) scale(0.100000,-0.100000)"
fill="#000000" stroke="none">
<path d="M798 1289 c-96 -11 -152 -32 -238 -89 -45 -31 -103 -59 -145 -71
-118 -35 -126 -39 -146 -83 -13 -29 -19 -65 -19 -124 0 -107 8 -122 65 -122
l45 0 0 41 c0 54 31 104 81 129 102 53 220 -9 235 -123 l7 -47 313 0 314 0 0
36 c0 50 35 107 80 133 101 57 224 -7 237 -123 l6 -46 53 0 c53 0 53 0 60 36
8 42 1 118 -15 157 -15 39 -92 72 -216 94 -86 15 -108 23 -160 59 -117 81
-238 127 -368 139 -34 3 -75 7 -92 9 -16 2 -60 0 -97 -5z m106 -80 c3 -17 6
-47 6 -65 l0 -34 -165 0 c-97 0 -165 4 -165 9 0 12 53 53 99 76 37 19 139 43
187 44 27 1 32 -3 38 -30z m154 15 c81 -16 208 -72 238 -105 9 -10 13 -19 8
-20 -42 -2 -239 3 -276 8 -51 6 -52 7 -63 86 -7 54 -12 53 93 31z"/>
<path d="M436 919 c-61 -53 -58 -130 6 -184 54 -45 151 -27 183 35 29 55 12
130 -37 164 -13 9 -43 16 -70 16 -39 0 -54 -6 -82 -31z"/>
<path d="M1391 925 c-40 -34 -56 -84 -41 -130 28 -85 136 -115 201 -57 27 24
33 37 37 84 4 53 3 57 -32 92 -32 32 -43 36 -86 36 -37 0 -55 -6 -79 -25z"/>
</g>
</svg>
